<svg id="Layer_1" height="512" viewBox="0 0 512 512" width="512" xmlns="http://www.w3.org/2000/svg" data-name="Layer 1"><g fill-rule="evenodd"><path d="m17.002 466.829v-18.34c0-10.112 8.217-18.329 18.329-18.329h441.33c10.117 0 18.337 8.211 18.338 18.329v18.34s-477.998 0-477.998 0zm114.479-248.06c0 6.876-7.661 10.63-13.681 10.63h-50.29c-6.019 0-13.68-3.754-13.679-10.63v-16.539h77.65zm108.9 0c0 6.88-7.668 10.629-13.69 10.629h-50.278c-6.021 0-13.692-3.749-13.691-10.63l.003-16.539h77.657v16.539zm108.891 0c0 6.879-7.658 10.629-13.681 10.629h-50.278c-6.021 0-13.692-3.749-13.691-10.63l.003-16.539h77.648v16.539zm44.932 10.629c-6.022 0-13.684-3.75-13.683-10.63l.003-16.539h77.648v16.539c0 6.875-7.661 10.629-13.681 10.629h-50.287zm-44.931 168.07h-77.65v-17.029c0-6.881 7.665-10.629 13.687-10.629h50.281c6.022 0 13.677 3.75 13.679 10.628zm31.25-17.029c0-6.879 7.654-10.629 13.678-10.629h50.29c6.019 0 13.677 3.754 13.678 10.628l.003 17.03h-77.65v-17.029zm-249.041 17.029h-77.65v-17.029c0-6.876 7.659-10.629 13.679-10.629h50.29c6.021 0 13.679 3.752 13.68 10.629l.002 17.03zm31.242 0v-17.029c0-6.881 7.665-10.629 13.687-10.629h50.281c6.021 0 13.687 3.749 13.688 10.628l.002 17.03h-77.659z" fill="#bddbff"/><path d="m209.171 127.54c0-25.828 21.005-46.829 46.833-46.829 25.821 0 46.824 21.009 46.825 46.829.001 25.821-21.009 46.83-46.829 46.829-25.825 0-46.83-21.004-46.829-46.829zm55.272 16.914c-2.085 2.799-5.297 4.185-8.752 4.185-4.505 0-8.545-2.725-10.233-6.902-.208-.515-.782-.764-1.298-.556-.517.209-.765.786-.556 1.304 1.371 3.4 4.067 6.043 7.497 7.324l3.906 1.458-.007 5.45c0 .555.448.993 1 .993.556 0 1.003-.439 1.002-.997l-.004-5.525 3.775-1.51c2.095-.838 3.9-2.195 5.255-4.005 2.239-2.99 3.027-6.931 1.981-10.529-.366-1.258-.942-2.425-1.705-3.489-2.69-3.753-5.804-4.774-10.07-5.833-2.726-.677-5.216-1.317-7.378-3.246-2.886-2.575-3.847-6.412-2.469-10.011 1.494-3.902 5.173-6.125 9.303-6.125 4.182 0 7.965 2.587 9.481 6.484.202.519.778.775 1.298.573.519-.202.768-.78.567-1.298-1.164-3.002-3.541-5.405-6.472-6.708l-3.559-1.582-.004-5.535c0-.562-.438-1.005-1.001-1.005s-.998.449-.999 1.009l-.007 5.422-3.85 1.473c-3.061 1.171-5.456 3.514-6.629 6.586-1.663 4.359-.462 9.106 3.006 12.211 2.461 2.203 5.124 2.925 8.241 3.697 3.747.929 6.59 1.773 8.93 5.072.625.881 1.104 1.854 1.403 2.894.862 2.998.202 6.231-1.654 8.722z" fill="#bddbff"/><path d="m489.001 460.83h-466v-12.34c0-6.801 5.529-12.33 12.329-12.33h441.331c6.813 0 12.339 5.53 12.339 12.33v12.34zm-448.25-47.02c0-4.6 3.739-8.34 8.339-8.34h413.811c4.613 0 8.35 3.74 8.35 8.34l.002 8.35h-430.502zm26.759-38h50.29c4.324 0 7.681 2.49 7.681 4.63v11.03s-65.65 0-65.65 0v-11.03c0-2.141 3.359-4.63 7.679-4.63zm-7.679-167.58h65.651v10.539c0 2.14-3.361 4.63-7.682 4.63h-50.29c-4.32 0-7.68-2.49-7.68-4.63v-10.54zm-19.359-18.45c-.79-2.71.228-5.43 2.608-6.94l200.324-127.84c3.946-2.511 8.266-3.77 12.596-3.77 4.333 0 8.65 1.26 12.6 3.77l200.322 127.84c2.381 1.51 3.398 4.24 2.608 6.94-.786 2.699-3.119 4.45-5.929 4.45h-419.2c-2.81 0-5.141-1.75-5.929-4.45zm404.019 33.62h-50.287c-4.329 0-7.683-2.49-7.683-4.63l.002-10.54h65.65v10.539c0 2.14-3.362 4.63-7.681 4.63zm-43.29 138.41v-124.41h36.292v124.41zm-58.608 1c8.527 2.51 14.679 9.46 14.679 17.63v11.03h15.25l-.002-11.03c0-8.17 6.154-15.12 14.681-17.63v-126.41c-8.531-2.51-14.679-9.46-14.679-17.63v-10.539h-15.25l-.002 10.54c0 8.17-6.15 15.12-14.677 17.63v126.41zm-64.971 17.63c0-2.141 3.358-4.63 7.688-4.63h50.281c4.329 0 7.679 2.49 7.679 4.63l.002 11.03h-65.65zm57.969-157.041h-50.278c-4.329 0-7.692-2.49-7.692-4.63l.002-10.54h65.65v10.539c0 2.14-3.353 4.63-7.682 4.63zm-43.281 14h36.283v124.41h-36.283zm-58.617 125.41c8.527 2.51 14.688 9.46 14.688 17.63v11.03h15.241l-.002-11.03c0-8.17 6.154-15.12 14.69-17.63v-126.41c-8.54-2.51-14.688-9.46-14.688-17.63v-10.539h-15.241v10.54c-.001 8.17-6.161 15.12-14.688 17.63v126.41zm-64.971 17.63c0-2.141 3.358-4.63 7.688-4.63h50.281c4.329 0 7.689 2.49 7.689 4.63l.002 11.03h-65.659v-11.03zm57.969-157.041h-50.278c-4.329 0-7.692-2.49-7.692-4.63l.002-10.54h65.659v10.539c0 2.14-3.362 4.63-7.691 4.63zm-43.276 14h36.279v124.41h-36.279zm-72.612 0v124.41h-36.292v-124.41zm14 125.41c8.528 2.51 14.679 9.46 14.679 17.63v11.03h15.241l-.002-11.03c0-8.17 6.163-15.12 14.69-17.63v-126.41c-8.53-2.51-14.688-9.46-14.688-17.63v-10.539h-15.241v10.54c-.001 8.17-6.147 15.12-14.679 17.63v126.41zm327.37 28.66h-65.65v-11.03c0-2.141 3.348-4.63 7.678-4.63h50.29c4.32 0 7.679 2.49 7.679 4.63l.002 11.03zm33.08 32.13v-9.79c0-11.21-8.302-20.519-19.082-22.099l.002-11.27c0-8.17-6.152-15.12-14.682-17.63l.003-126.41c8.528-2.51 14.677-9.46 14.677-17.63l.002-10.57c8.811-.24 16.319-6 18.798-14.5 2.541-8.69-.89-17.8-8.52-22.67l-200.318-127.829c-12.609-8.04-27.662-8.04-40.262 0l-200.32 127.83c-7.641 4.87-11.061 13.98-8.521 22.67 2.48 8.5 9.99 14.26 18.801 14.5v10.57c.001 8.17 6.15 15.12 14.679 17.63v126.41c-8.529 2.51-14.679 9.46-14.679 17.63v11.27c-10.778 1.58-19.08 10.89-19.08 22.1v9.79c-10.319 3.57-17.75 13.38-17.75 24.89v19.34c.001 3.87 3.13 7 7 7h480.002c3.87 0 6.997-3.13 6.997-7v-19.34c0-11.51-7.43-21.32-17.748-24.89zm-225.622-282.728c-.601.81-1.777 1.77-3.941 1.77-2.06 0-3.898-1.24-4.67-3.15-1.45-3.59-5.528-5.321-9.11-3.87-3.59 1.45-5.32 5.53-3.87 9.11 2.04 5.07 6.062 8.87 10.962 10.7l-.002 1.28c0 3.87 3.134 7 7 7s7.002-3.13 7.002-7v-1.46c3.099-1.24 5.801-3.27 7.829-5.98 3.4-4.54 4.501-10.44 2.94-15.8-.55-1.9-1.418-3.68-2.59-5.31-4.19-5.85-9.569-7.18-13.5-8.16-2.39-.59-3.787-.97-4.83-1.9-1.4-1.25-1.139-2.661-.86-3.39.26-.68 1.143-2.27 3.7-2.27 1.71 0 3.27 1.07 3.89 2.66 1.399 3.6 5.45 5.39 9.06 3.99 3.599-1.4 5.39-5.45 3.989-9.06-1.76-4.54-5.308-8.1-9.628-10.02v-1.639c-.001-3.87-3.127-7-7.002-7s-6.998 3.13-6.998 7l-.002 1.3c-4.6 1.76-8.287 5.33-10.09 10.05-2.54 6.66-.726 14.04 4.61 18.82 3.68 3.29 7.633 4.27 10.799 5.05 3.25.81 4.393 1.19 5.48 2.72.24.34.421.7.53 1.08.33 1.15.07 2.45-.699 3.48zm-3.627-54.16c-22.523 0-40.833 18.32-40.834 40.83 0 22.51 18.312 40.829 40.83 40.83 22.51 0 40.833-18.321 40.83-40.83 0-22.51-18.317-40.83-40.826-40.83zm0 95.66c30.226 0 54.826-24.6 54.826-54.83.002-30.23-24.601-54.83-54.83-54.83s-54.83 24.6-54.83 54.83c.002 30.23 24.6 54.83 54.834 54.83z" fill="#57a4ff"/></g></svg>