<svg enable-background="new 0 0 512 512" viewBox="0 0 512 512" xmlns="http://www.w3.org/2000/svg"><g id="_x34_8_Academic"><g><g><path d="m414.538 380.997c-21.804 23.941-21.804 47.883 0 71.824h-268.06c-19.834 0-35.912-16.078-35.912-35.912 0-19.834 16.078-35.912 35.912-35.912z" fill="#fff"/></g><g><path d="m180.466 380.997h-33.989c-19.834 0-35.912 16.078-35.912 35.912s16.078 35.912 35.912 35.912h33.989z" fill="#c9def7"/></g><g><path d="m196.944 309.173c21.804 23.941 21.804 47.883 0 71.824h268.06c19.834 0 35.912-16.078 35.912-35.912 0-19.834-16.078-35.912-35.912-35.912z" fill="#fff"/></g><g><path d="m431.016 309.173h33.989c19.834 0 35.912 16.078 35.912 35.912s-16.078 35.912-35.912 35.912h-33.989z" fill="#c9def7"/></g><g><path d="m395.58 222.403c-.058-.316-.095-.627-.158-.943-4.244-21.356-17.957-36.612-30.64-34.092s-19.519 21.862-15.275 43.217c.063.317.147.618.215.932z" fill="#c9def7"/></g><g><path d="m320.535 212.83 8.22 41.359c-67.154 68.657-144.883 84.106-233.187 46.346l-8.22-41.359c88.304 37.76 166.033 22.311 233.187-46.346z" fill="#c9def7"/></g><g><path d="m297.291 95.881 23.243 116.949c-67.154 68.657-144.883 84.106-233.187 46.346l-23.243-116.949z" fill="#fff"/></g><g><path d="m357.514 102.744-157.72 112.392-188.711-43.539 36.462-25.99 121.253-86.429 145.087 33.494z" fill="#c9def7"/></g><g><ellipse cx="203.331" cy="127.714" fill="#fff" rx="23.357" ry="13.74" transform="matrix(.955 -.297 .297 .955 -28.738 66.081)"/></g><g><path d="m378.831 178.19c1.732 8.715-3.925 17.178-12.64 18.91s-17.178-3.925-18.91-12.64 3.924-17.178 12.639-18.91c8.716-1.732 17.179 3.924 18.911 12.64z" fill="#fff"/></g><path d="m465.004 304.277c-69.987 0-121.089 0-194.177 0 21.41-11.155 41.907-26.702 61.429-46.663 1.129-1.158 1.617-2.794 1.301-4.382-.536-2.697-21.909-110.244-22.178-111.596l.258-.185 24.105.75c8.95.397 16.422 6.812 18.168 15.594l.849 4.272c-8.892 3.828-14.246 13.473-12.282 23.348.806 4.061 2.759 7.702 5.597 10.588-7.794 15.538-3.173 36.036-3.148 36.529.563 2.659 3.173 4.319 5.75 3.789l45.86-9.117c2.574-.512 4.219-3.382 3.813-5.975-.371-1.151-3.388-21.333-17.569-32.959 1.242-3.515 1.598-7.29.851-11.04-1.887-9.5-9.961-16.139-19.202-16.756l-.913-4.593c-2.626-13.217-13.867-22.87-27.4-23.473l-11.296-.352 35.534-25.322c1.569-1.119 2.339-3.052 1.961-4.946-.373-1.889-1.823-3.382-3.702-3.817l-188.713-43.567c-1.37-.306-2.803-.033-3.946.785l-157.715 112.417c-1.569 1.119-2.337 3.057-1.961 4.946s1.825 3.382 3.705 3.817l58.601 13.521c2.863 14.404 19.817 99.71 22.181 111.602.316 1.583 1.392 2.913 2.88 3.549 34.687 14.83 71.095 23.017 108.651 19.58 9.946 17.199 7.426 34.157-7.598 51.475-5.545 0-50.124 0-48.219 0-22.504 0-40.811 18.307-40.811 40.813 0 22.502 18.307 40.808 40.811 40.808h268.06c1.937 0 3.698-1.143 4.482-2.918.785-1.775.445-3.846-.861-5.276-19.498-21.412-19.918-42.247-1.37-63.631 5.545 0 50.12 0 48.216 0 22.507 0 40.813-18.307 40.813-40.808s-18.309-40.807-40.815-40.807zm-75.293-85.702-36.044 7.166c-1.259-9.479-.132-18.295 2.698-24.556 7.641 2.588 15.559.569 21.051-4.618 6.202 5.56 10.153 13.96 12.295 22.008zm-15.685-39.431c1.205 6.046-2.741 11.949-8.792 13.155-6.023 1.195-11.935-2.693-13.15-8.797-1.37-6.899 3.927-13.365 10.973-13.365 5.224 0 9.912 3.693 10.969 9.007zm-204.181-114.699 175.962 40.627-37.164 26.483-78.988-2.457c1.347-3.23 1.649-6.576.658-9.767-3.67-11.833-20.233-13.227-32.514-9.414-12.397 3.85-25.106 14.416-21.452 26.18 3.705 11.928 20.386 13.177 32.514 9.414 5.148-1.6 9.612-3.999 13.17-6.845l73.429 2.283-96.714 68.92-175.961-40.598zm36.109 71.71c-6.364 1.972-18.568 2.469-20.249-2.966-1.668-5.357 8.178-11.793 15.004-13.915 6.586-2.047 18.586-2.411 20.249 2.966 1.238 3.984-4.916 10.781-15.004 13.915zm-7.259 83.754c1.427.319 2.835.005 3.944-.785l99.992-71.255 12.589 63.336c-64.274 64.559-139.38 79.594-223.581 44.436l-12.587-63.336zm-98.828 77.125-5.936-29.868c84.283 33.089 159.64 17.155 223.578-44.434l5.936 29.864c-64.286 64.587-139.481 79.54-223.578 44.438zm148.805 17.039h177.446v26.113h-208.343c-.62-5.624-2.308-11.238-5.051-16.817 12.234-1.839 24.216-4.951 35.948-9.296zm-30.879 35.91h208.326v26.113c-72.847 0-145.647 0-218.916 0 6.115-8.612 9.634-17.353 10.59-26.113zm-71.315 97.938c-17.101 0-31.014-13.911-31.014-31.012s13.913-31.016 31.014-31.016h29.091v62.028zm257.804 0h-218.916v-26.113h208.332c.961 8.759 4.467 17.499 10.584 26.113zm-10.585-35.91h-208.331v-26.118h218.916c-6.118 8.615-9.624 17.357-10.585 26.118zm71.307-35.914h-29.089v-62.023h29.089c17.101 0 31.016 13.91 31.016 31.012s-13.915 31.011-31.016 31.011z" fill="#0c76f0"/></g></g><g id="Layer_1"/></svg>