<svg xmlns="http://www.w3.org/2000/svg" version="1.1" xmlns:xlink="http://www.w3.org/1999/xlink" width="512" height="512" x="0" y="0" viewBox="0 0 60 60" style="enable-background:new 0 0 512 512" xml:space="preserve" class=""><g><g fill="none" fill-rule="nonzero"><path fill="#e8edfc" d="M45 7.84v15.41a9.993 9.993 0 0 1-4.15 8.11l-10.36 7.48a.841.841 0 0 1-.98 0l-1.01-.73-9.35-6.75A9.993 9.993 0 0 1 15 23.25V7.84a.461.461 0 0 1 .28-.43l13.22-5.8 1.31-.57a.5.5 0 0 1 .38 0l14.53 6.37a.461.461 0 0 1 .28.43Z" opacity="1" data-original="#e8edfc"></path><path fill="#ffffff" d="M42 7.84v15.41a9.993 9.993 0 0 1-4.15 8.11l-9.35 6.75-9.35-6.75A9.993 9.993 0 0 1 15 23.25V7.84a.461.461 0 0 1 .28-.43l13.22-5.8 13.22 5.8a.461.461 0 0 1 .28.43Z" opacity="1" data-original="#ffffff"></path><path fill="#a4c2f7" d="M21.513 27.822A6.127 6.127 0 0 1 19 22.887V9.859L30 5l11 4.859v13.028a6.121 6.121 0 0 1-2.513 4.935L30 34l-8.487-6.178Z" opacity="1" data-original="#a4c2f7" class=""></path><path fill="#e8edfc" d="m14.316 41.738-4.568-4.569a10.9 10.9 0 0 1-2.31-3.411L5.2 28.539a2.189 2.189 0 0 0-2.01-1.326 2.189 2.189 0 0 0-1.99 3.094l3.919 8.622a9.693 9.693 0 0 0 1.968 2.84L14.316 49H24v-2.861a9.455 9.455 0 0 0-1.972-5.925 6.248 6.248 0 0 0-2.869-2.107 21.456 21.456 0 0 1-6.053-3.858 3.584 3.584 0 0 0-4.838.224M45.682 41.738l4.569-4.569a10.9 10.9 0 0 0 2.31-3.411l2.239-5.219a2.189 2.189 0 0 1 2.012-1.326 2.189 2.189 0 0 1 1.988 3.094l-3.919 8.622a9.693 9.693 0 0 1-1.968 2.84L45.682 49H36v-2.861a9.455 9.455 0 0 1 1.973-5.925 6.248 6.248 0 0 1 2.869-2.107 21.451 21.451 0 0 0 6.052-3.858 3.586 3.586 0 0 1 4.839.224" opacity="1" data-original="#e8edfc"></path><path fill="#cad9fc" d="M59 29.4c0 .314-.067.625-.2.91l-3.92 8.62a9.647 9.647 0 0 1-1.97 2.84L45.68 49h-3l7.23-7.23a9.647 9.647 0 0 0 1.97-2.84l3.92-8.62c.133-.285.2-.596.2-.91a2.2 2.2 0 0 0-.69-1.59 2.151 2.151 0 0 1 1.5-.6A2.2 2.2 0 0 1 59 29.4Z" opacity="1" data-original="#cad9fc" class=""></path><rect width="13" height="10" x="34" y="49" fill="#7facfa" rx="1" opacity="1" data-original="#7facfa" class=""></rect><rect width="10" height="10" x="34" y="49" fill="#a4c2f7" rx="1" opacity="1" data-original="#a4c2f7" class=""></rect><rect width="13" height="10" x="12.999" y="49" fill="#a4c2f7" rx="1" opacity="1" data-original="#a4c2f7" class=""></rect><path fill="#ffffff" d="m30.49 38.84 1.01-.73-9.35-6.75A9.993 9.993 0 0 1 18 23.25V7.84a.461.461 0 0 1 .28-.43L31.5 1.612l-1.3-.572a.5.5 0 0 0-.38 0l-1.31.57-13.23 5.8a.461.461 0 0 0-.28.43v15.41a9.993 9.993 0 0 0 4.15 8.11l9.35 6.75 1.01.73c.293.21.687.21.98 0ZM5.117 38.929a9.693 9.693 0 0 0 1.968 2.84L14.316 49H14a1 1 0 0 0-1 1v8a1 1 0 0 0 1 1h3a1 1 0 0 1-1-1v-8a1 1 0 0 1 1-1h.317l-7.231-7.231a9.693 9.693 0 0 1-1.968-2.84L4.2 30.307a2.181 2.181 0 0 1 .477-2.483A2.172 2.172 0 0 0 1.2 30.307l3.917 8.622Z" opacity="1" data-original="#ffffff"></path><path fill="#5c8ffc" d="M30 40c-.385 0-.76-.122-1.073-.348L18.56 32.175A11.014 11.014 0 0 1 14 23.267V7.566a1 1 0 0 1 .6-.916l15-6.566a1 1 0 0 1 .8 0l15 6.566a1 1 0 0 1 .6.916v15.7a11.014 11.014 0 0 1-4.56 8.908l-10.367 7.479A1.835 1.835 0 0 1 30 40ZM16 8.22v15.047a9.009 9.009 0 0 0 3.73 7.286L30 37.96l10.27-7.407A9.009 9.009 0 0 0 44 23.267V8.22L30 2.092 16 8.22Z" opacity="1" data-original="#428dff" class=""></path><path fill="#5c8ffc" d="M30 35.262a1 1 0 0 1-.585-.189L20.9 28.931a7 7 0 0 1-2.9-5.664V10.182a1 1 0 0 1 .6-.916l11-4.816a1 1 0 0 1 .8 0l11 4.816a1 1 0 0 1 .6.916v13.085a7 7 0 0 1-2.9 5.664l-8.515 6.142a1 1 0 0 1-.585.189Zm-7.93-7.953 7.93 5.72 7.93-5.72A5 5 0 0 0 40 23.267V10.835L30 6.458l-10 4.377v12.432a5 5 0 0 0 2.07 4.042Z" opacity="1" data-original="#428dff" class=""></path><path fill="#ffffff" d="M6.379 42.476a10.729 10.729 0 0 1-2.06-2.9l-1.352-2.963-2.679-5.892 1.821-.828 2.678 5.892 1.332 2.923a8.716 8.716 0 0 0 1.674 2.354l-1.414 1.414Z" opacity="1" data-original="#ffffff"></path><path fill="#5c8ffc" d="M4.642 37.883a.967.967 0 0 0-.528 1.255 10.822 10.822 0 0 0 2.265 3.338l1.414-1.414a8.793 8.793 0 0 1-1.858-2.751.967.967 0 0 0-1.293-.428ZM2.109 29.893l-1.821.828.766 1.679a.966.966 0 0 0 1.292.428.966.966 0 0 0 .528-1.255l-.765-1.68ZM2.584 35.771a.938.938 0 0 0 .536.478l.182.039a.781.781 0 0 0 .2 0 .624.624 0 0 0 .186-.024 1.094 1.094 0 0 0 .725-.604.943.943 0 0 0 .066-.364.894.894 0 0 0-.609-.831 1.044 1.044 0 0 0-.38-.04c-.13.007-.258.037-.377.09a1.1 1.1 0 0 0-.536.538c-.093.23-.09.49.007.718Z" opacity="1" data-original="#428dff" class=""></path><path fill="#5c8ffc" d="M24 50h-9.683a1 1 0 0 1-.707-.293l-7.231-7.231a1 1 0 0 1 1.414-1.414L14.731 48H23v-1.861a8.485 8.485 0 0 0-1.753-5.3 5.253 5.253 0 0 0-2.405-1.783 21.321 21.321 0 0 1-6.38-4.04 2.6 2.6 0 0 0-3.487.165A1 1 0 0 1 7.5 33.835a4.628 4.628 0 0 1 6.253-.351 19.782 19.782 0 0 0 5.725 3.674 7.2 7.2 0 0 1 3.333 2.431A10.478 10.478 0 0 1 25 46.139V49a1 1 0 0 1-1 1Z" opacity="1" data-original="#428dff" class=""></path><path fill="#5c8ffc" d="M14.317 42.738a1 1 0 0 1-.707-.293l-4.568-4.569a11.8 11.8 0 0 1-2.522-3.725l-2.237-5.217a1.187 1.187 0 0 0-2.091-.176c-.22.34-.25.768-.083 1.136a1 1 0 0 1-1.82.827 3.188 3.188 0 1 1 5.833-2.575l2.235 5.217a9.856 9.856 0 0 0 2.1 3.1l4.568 4.569a1 1 0 0 1-.707 1.707l-.001-.001ZM25 60H14a2 2 0 0 1-2-2v-8a2 2 0 0 1 2-2h11a2 2 0 0 1 2 2v8a2 2 0 0 1-2 2ZM14 50v8h11v-8H14Z" opacity="1" data-original="#428dff" class=""></path><path fill="#cad9fc" d="M22 55h-1a1 1 0 0 1 0-2h1a1 1 0 0 1 0 2Z" opacity="1" data-original="#cad9fc" class=""></path><path fill="#5c8ffc" d="M45.683 50H36a1 1 0 0 1-1-1v-2.861a10.478 10.478 0 0 1 2.192-6.55 7.2 7.2 0 0 1 3.333-2.431 19.782 19.782 0 0 0 5.725-3.674 4.612 4.612 0 0 1 5.471-.3l2.158-5.035a3.188 3.188 0 1 1 5.832 2.575l-3.919 8.621a10.621 10.621 0 0 1-2.171 3.134l-7.231 7.228a1 1 0 0 1-.707.293ZM37 48h8.269l6.938-6.938a8.649 8.649 0 0 0 1.765-2.547l3.919-8.621a1.189 1.189 0 1 0-2.174-.961l-2.237 5.218a11.8 11.8 0 0 1-2.522 3.725l-4.568 4.569a1 1 0 0 1-1.414-1.414l4.568-4.569c.462-.46.877-.967 1.239-1.51a2.6 2.6 0 0 0-3.245.063 21.312 21.312 0 0 1-6.381 4.04c-.956.35-1.79.969-2.4 1.783A8.485 8.485 0 0 0 37 46.139V48Z" opacity="1" data-original="#428dff" class=""></path><path fill="#5c8ffc" d="M46 60H35a2 2 0 0 1-2-2v-8a2 2 0 0 1 2-2h11a2 2 0 0 1 2 2v8a2 2 0 0 1-2 2ZM35 50v8h11v-8H35Z" opacity="1" data-original="#428dff" class=""></path><path fill="#cad9fc" d="M39 55h-1a1 1 0 0 1 0-2h1a1 1 0 0 1 0 2Z" opacity="1" data-original="#cad9fc" class=""></path><path fill="#5c8ffc" d="M28 26a1 1 0 0 1-.6-.2l-4-3a1 1 0 0 1 1.2-1.6l3.154 2.366 7.414-11.121a1 1 0 0 1 1.664 1.11l-8 12A1 1 0 0 1 28 26Z" opacity="1" data-original="#428dff" class=""></path></g></g></svg>