<svg enable-background="new 0 0 512 512" viewBox="0 0 512 512" xmlns="http://www.w3.org/2000/svg"><g id="_x31_4_Retail_Store"><g><path d="m52.288 191.443h407.425v263.318h-407.425z" fill="#fff"/><path d="m470.713 190.617v38.03c0 14.823-12.016 26.839-26.839 26.839-14.823 0-26.839-12.016-26.839-26.839v-38.03z" fill="#9cc0fd"/><path d="m421.097 114.916 49.617 76.528h-429.428l49.617-76.528c2.533-3.907 6.873-6.266 11.53-6.266h307.134c4.657 0 8.997 2.358 11.53 6.266z" fill="#9cc0fd"/><path d="m481.193 462.017v16.36c0 4.007-3.248 7.255-7.255 7.255h-435.876c-4.007 0-7.255-3.248-7.255-7.255v-16.36c0-4.007 3.248-7.255 7.255-7.255h435.877c4.006 0 7.254 3.248 7.254 7.255z" fill="#9cc0fd"/><path d="m94.965 191.443v38.03c0 14.823-12.016 26.839-26.839 26.839-14.823 0-26.839-12.016-26.839-26.839v-38.03z" fill="#fff"/><path d="m148.644 190.617v38.03c0 14.823-12.016 26.839-26.839 26.839-14.823 0-26.839-12.016-26.839-26.839v-38.03z" fill="#9cc0fd"/><path d="m202.322 191.443v38.03c0 14.823-12.016 26.839-26.839 26.839-14.823 0-26.839-12.016-26.839-26.839v-38.03z" fill="#fff"/><path d="m256 190.617v38.03c0 14.823-12.016 26.839-26.839 26.839-14.823 0-26.839-12.016-26.839-26.839v-38.03z" fill="#9cc0fd"/><path d="m309.678 191.443v38.03c0 14.823-12.016 26.839-26.839 26.839-14.823 0-26.839-12.016-26.839-26.839v-38.03z" fill="#fff"/><path d="m363.356 190.617v38.03c0 14.823-12.016 26.839-26.839 26.839-14.823 0-26.839-12.016-26.839-26.839v-38.03z" fill="#9cc0fd"/><path d="m417.035 191.443v38.03c0 14.823-12.016 26.839-26.839 26.839-14.823 0-26.839-12.016-26.839-26.839v-38.03z" fill="#fff"/><path d="m360.275 37.585v108.13c0 6.195-5.022 11.216-11.216 11.216h-186.118c-6.195 0-11.216-5.022-11.216-11.216v-108.13c0-6.195 5.022-11.216 11.216-11.216h186.117c6.195 0 11.217 5.021 11.217 11.216z" fill="#fff"/><path d="m206.969 291.166v164.023h-121.488v-164.023c0-4.635 3.758-8.393 8.393-8.393h104.701c4.636-.001 8.394 3.757 8.394 8.393z" fill="#9cc0fd"/><path d="m174.574 333.793v26.66c0 2.54-2.059 4.6-4.6 4.6h-47.499c-2.54 0-4.6-2.059-4.6-4.6v-26.66c0-2.54 2.059-4.6 4.6-4.6h47.499c2.541 0 4.6 2.059 4.6 4.6z" fill="#fff"/><path d="m427.259 290.904v109.35h-186.92v-109.35c0-4.501 3.628-8.129 8.129-8.129h170.708c4.455 0 8.083 3.628 8.083 8.129z" fill="#9cc0fd"/><path d="m297.634 56.953v23.995c0 7.698-6.241 13.939-13.939 13.939h-51.375v-37.934z" fill="#9cc0fd"/><path d="m257.785 130.466c0 4.452-3.612 8.058-8.058 8.058-4.452 0-8.063-3.606-8.063-8.058s3.612-8.058 8.063-8.058c4.446 0 8.058 3.606 8.058 8.058z" fill="#fff"/><path d="m288.292 130.466c0 4.452-3.612 8.058-8.058 8.058-4.452 0-8.063-3.606-8.063-8.058s3.612-8.058 8.063-8.058c4.446 0 8.058 3.606 8.058 8.058z" fill="#fff"/><g fill="#5c8ffc"><path d="m38.061 450.169c-6.532 0-11.847 5.315-11.847 11.847v16.361c0 6.532 5.315 11.847 11.847 11.847h435.878c6.532 0 11.847-5.315 11.847-11.847v-16.361c0-6.532-5.315-11.847-11.847-11.847h-9.634v-196.86c6.72-5.769 10.999-14.305 10.999-23.835v-38.03c-.099-.46-.077-1.481-.738-2.498l-49.617-76.527c-3.393-5.234-9.145-8.36-15.384-8.36h-44.7v-66.473c0-8.717-7.091-15.81-15.807-15.81h-186.117c-8.717 0-15.807 7.093-15.807 15.81v66.472h-44.7c-6.239 0-11.991 3.126-15.383 8.36l-49.617 76.527c-.643.991-.683 2.039-.738 2.498v38.03c0 9.53 4.28 18.066 10.999 23.835v196.86h-9.634zm438.54 11.847v16.361c0 1.469-1.193 2.662-2.662 2.662h-435.878c-1.469 0-2.662-1.193-2.662-2.662v-16.361c0-1.469 1.193-2.662 2.662-2.662.462 0 450.665 0 435.878 0 1.469 0 2.662 1.193 2.662 2.662zm-274.226-11.847h-112.302v-159.004c0-2.094 1.704-3.799 3.801-3.799h104.7c2.097 0 3.801 1.704 3.801 3.799zm263.744-220.695c0 12.266-9.979 22.246-22.246 22.246s-22.248-9.979-22.248-22.246v-33.438h44.493v33.438zm-53.678 0c0 12.266-9.979 22.246-22.246 22.246s-22.246-9.979-22.246-22.246v-33.438h44.491v33.438zm-53.676 0c0 12.266-9.981 22.246-22.248 22.246s-22.246-9.979-22.246-22.246v-33.438h44.493v33.438zm-53.679 0c0 12.266-9.981 22.246-22.248 22.246s-22.246-9.979-22.246-22.246v-33.438h44.493v33.438zm-53.679 0c0 12.266-9.979 22.246-22.246 22.246-12.266 0-22.248-9.979-22.248-22.246v-33.438h44.493v33.438zm-53.678 0c0 12.266-9.979 22.246-22.246 22.246-12.266 0-22.248-9.979-22.248-22.246v-33.438h44.493v33.438zm-53.679 0c0 12.266-9.979 22.246-22.246 22.246s-22.246-9.979-22.246-22.246v-33.438h44.491v33.438zm12.269-191.888c0-3.653 2.971-6.624 6.622-6.624h186.118c3.651 0 6.622 2.971 6.622 6.624v108.129c0 3.653-2.971 6.624-6.622 6.624h-186.118c-3.651 0-6.622-2.971-6.622-6.624zm-61.563 79.828c1.695-2.613 4.563-4.171 7.678-4.171h44.7v32.471c0 8.717 7.091 15.81 15.807 15.81h186.118c8.717 0 15.807-7.093 15.807-15.81v-32.471h44.7c3.115 0 5.983 1.559 7.678 4.171l45.018 69.437c-129.508 0-283.137 0-412.525 0zm-48.875 112.06v-33.438h44.493v33.438c0 12.266-9.981 22.246-22.248 22.246s-22.245-9.98-22.245-22.246zm10.999 29.314c3.498 1.347 7.28 2.116 11.246 2.116 11.371 0 21.321-6.089 26.84-15.158 5.52 9.068 15.469 15.158 26.838 15.158s21.318-6.089 26.838-15.158c5.52 9.068 15.47 15.158 26.84 15.158 11.369 0 21.318-6.089 26.838-15.158 5.52 9.068 15.47 15.158 26.84 15.158 11.369 0 21.318-6.089 26.838-15.158 5.52 9.068 15.469 15.158 26.838 15.158 11.371 0 21.321-6.089 26.84-15.158 5.52 9.068 15.469 15.158 26.838 15.158 11.371 0 21.321-6.089 26.84-15.158 5.52 9.068 15.469 15.158 26.838 15.158s21.318-6.089 26.838-15.158c5.52 9.068 15.47 15.158 26.84 15.158 3.966 0 7.748-.769 11.246-2.116v191.38h-243.556v-159.003c0-7.16-5.826-12.984-12.986-12.984h-104.7c-7.16 0-12.986 5.824-12.986 12.984v159.004h-24.008z"/><path d="m169.973 324.6h-4.06l-16.116-19.96c-.87-1.079-2.184-1.707-3.572-1.707s-2.702.628-3.572 1.707l-16.118 19.96h-4.06c-5.068 0-9.192 4.124-9.192 9.192v26.661c0 5.068 4.124 9.192 9.192 9.192h47.498c5.07 0 9.194-4.124 9.194-9.192v-26.661c.001-5.068-4.123-9.192-9.194-9.192zm-23.748-9.764 7.883 9.764h-15.768zm23.748 45.624-47.505-.007.007-26.668h47.507z"/><path d="m231.817 404.87h203.995c2.536 0 4.593-2.056 4.593-4.593 0-2.536-2.056-4.593-4.593-4.593h-3.942v-104.802c0-7.003-5.698-12.701-12.702-12.701h-170.707c-7.003 0-12.701 5.698-12.701 12.701v104.803h-3.942c-2.536 0-4.593 2.056-4.593 4.593-.001 2.536 2.056 4.592 4.592 4.592zm13.128-113.988c0-1.94 1.576-3.516 3.516-3.516h170.708c1.94 0 3.516 1.576 3.516 3.516v104.803h-177.74z"/><path d="m214.366 49.368h13.363c0 1.002 0 52.071 0 51.396 0 7.694 6.261 13.955 13.955 13.955h55.95c2.536 0 4.593-2.056 4.593-4.593s-2.056-4.593-4.593-4.593h-55.95c-2.63 0-4.77-2.139-4.77-4.77v-1.285h46.781c10.219 0 18.532-8.313 18.532-18.53v-23.996c0-2.536-2.056-4.593-4.593-4.593h-60.72v-7.584c0-2.536-2.056-4.593-4.593-4.593h-17.956c-2.536 0-4.593 2.056-4.593 4.593.001 2.536 2.058 4.593 4.594 4.593zm78.676 12.176v19.404c0 5.153-4.193 9.344-9.347 9.344h-46.781v-28.748z"/><path d="m249.728 117.815c-6.979 0-12.657 5.676-12.657 12.65s5.678 12.65 12.657 12.65c6.974 0 12.65-5.676 12.65-12.65s-5.676-12.65-12.65-12.65zm0 16.115c-1.915 0-3.471-1.554-3.471-3.465s1.556-3.465 3.471-3.465c1.911 0 3.465 1.554 3.465 3.465s-1.555 3.465-3.465 3.465z"/><path d="m280.235 117.815c-6.979 0-12.657 5.676-12.657 12.65s5.678 12.65 12.657 12.65c6.974 0 12.65-5.676 12.65-12.65s-5.676-12.65-12.65-12.65zm0 16.115c-1.915 0-3.471-1.554-3.471-3.465s1.556-3.465 3.471-3.465c1.911 0 3.465 1.554 3.465 3.465s-1.555 3.465-3.465 3.465z"/></g></g></g><g id="Layer_1"/></svg>