<svg xmlns="http://www.w3.org/2000/svg" version="1.1" xmlns:xlink="http://www.w3.org/1999/xlink" width="512" height="512" x="0" y="0" viewBox="0 0 500 500" style="enable-background:new 0 0 512 512" xml:space="preserve" class=""><g><g fill-rule="evenodd" clip-rule="evenodd"><path fill="#9cc0fd" d="M149.388 177.156c0-11.89 9.639-21.532 21.531-21.532H329.11c11.862 0 21.531 9.669 21.531 21.532v58.677l-34.114 16.952-80.492-23.587c-5.645-1.654-11.456.996-13.883 6.357-2.422 5.352-.574 11.46 4.383 14.603l41.84 26.533-37.523 18.664c-4.007 1.993-8.441 1.52-11.87-1.349l-25.78-21.178c-3.765-3.093-8.967-3.535-13.189-1.093-3.053 1.766-5.628 2.887-6.603 6.589a8.218 8.218 0 0 0 .842 6.258l19.868 34.4c-15.42 4.586-29.019 8.196-44.734 11.708V177.156zm88.201 160.563c-13.214 5.712-28.545 1.891-37.598-9.293l-.744-.919c-16.962 5.146-32.533 9.27-49.859 13.046v60.708c0 11.889 9.638 21.542 21.531 21.542H329.11c11.863 0 21.531-9.68 21.531-21.542V288.857l-6.771 2.931-21.284 87.386c-1.273 5.227-5.82 8.879-11.211 8.879-6.323 0-11.413-4.811-11.672-11.146l-2.654-64.89z" opacity="1" data-original="#9bc9ff" class=""></path><path fill="#5c8ffc" d="M398.12 221.923c-9.689-2.813-19.604-1.899-28.953 2.743l-7.082 3.523v-51.033c0-9.519-4.079-18.095-10.538-24.115 63.174-13.815 97.113-8.366 102.042 3.532 4.023 9.641-8.272 32.455-55.469 65.35zm21.248 23.921c0 .597-.227.985-.793 1.222L233.017 327.23c-9.575 4.13-20.68.441-25.949-8.594l-21.36-36.998.227.009 25.78 21.178c6.912 5.695 16.205 6.75 24.193 2.769l139.153-69.128c7.479-3.718 15.184-3.946 22.89-.659l20.624 8.824c.566.237.793.606.793 1.213zm-110.995 63.203 2.72 67.388c.048.199.366.302.397.044l18.697-76.87zm40.511 92.213V291.533l-3.513 1.521-21.077 86.537c-1.473 6.098-6.799 10.221-12.918 10.221-7.262 0-13.126-5.552-13.428-12.832l-2.55-62.334-57.112 24.687a33.77 33.77 0 0 1-39.661-9.8c-15.694 4.763-31.785 9.017-47.48 12.436v59.292c0 10.907 8.839 19.784 19.774 19.784H329.11c10.879 0 19.774-8.878 19.774-19.785zM318.459 454h-21.077c-.453 0-.85-.396-.85-.835v-18.938h22.777v18.938c-.001.438-.397.835-.85.835zm-114.961-.835c0 .438-.397.835-.85.835h-21.077c-.453 0-.85-.396-.85-.835v-18.938h22.777zM46.441 325.559c-5.949-14.377 23.683-48.808 91.504-88.17v93.867c-53.939 10.449-86.518 6.336-91.504-5.697zm232.187-55.908 20.34-10.108-66.177-19.385-.17.352zM170.92 157.381c-10.935 0-19.774 8.868-19.774 19.775v151.341c12.465-2.787 25.949-6.283 40.341-10.564l-18.754-32.472c-1.36-2.31-1.7-5.002-1.02-7.585 1.155-4.378 4.116-5.753 7.422-7.662 4.873-2.822 10.878-2.322 15.185 1.257l25.78 21.178c2.889 2.417 6.572 2.831 9.972 1.133l34.732-17.276-39.207-24.864c-5.723-3.6-7.819-10.677-5.043-16.812 2.776-6.133 9.462-9.218 15.978-7.319l79.832 23.394 32.522-16.161v-57.588c0-10.907-8.895-19.775-19.774-19.775zm54.675-80.725h48.839v67.543h-48.839zm-15.298-30.655h79.435v17.471h-79.435zM465.771 151.52c-13.938-33.526-97.849-16.486-134.507-7.242a29.244 29.244 0 0 0-2.153-.08H287.58V76.656h2.663c6.969 0 12.691-5.696 12.691-12.69V45.51c0-6.996-5.723-12.691-12.691-12.691h-80.455c-6.969 0-12.692 5.695-12.692 12.691v18.456c0 6.994 5.723 12.69 12.692 12.69h2.606v67.543H170.92c-18.187 0-32.975 14.782-32.975 32.957v45.046c-33.882 19.133-61.418 38.581-79.832 56.378-21.53 20.793-29.576 38.298-23.853 52.035 11.815 28.401 74.257 19.592 103.685 14.034v56.611c0 17.033 12.975 31.094 29.576 32.789v19.116c0 7.724 6.289 14.016 14.051 14.016h21.077c7.762 0 14.051-6.292 14.051-14.016v-18.938h66.631v18.938c0 7.724 6.289 14.016 14.051 14.016h21.077c7.762 0 14.051-6.292 14.051-14.016v-19.116c16.544-1.695 29.576-15.756 29.576-32.789V285.839l61.701-26.672c11.719-5.052 11.728-21.631-.057-26.665l-11.105-4.745c17.791-12.954 31.559-25.266 40.907-36.673 12.635-15.388 16.715-28.701 12.239-39.564z" opacity="1" data-original="#1e81ce" class=""></path></g></g></svg>